<svg xmlns="http://www.w3.org/2000/svg" width="183.835" height="110.292" viewBox="0 0 183.835 110.292">
  <g id="Icon_ionic-ios-done-all" data-name="Icon ionic-ios-done-all" transform="translate(-6.746 -11.25)" opacity="0.407">
    <path id="Path_205" data-name="Path 205" d="M69.057,29.356a2.688,2.688,0,0,0,0-3.734L57.683,13.559a2.478,2.478,0,0,0-1.838-.8h0a2.478,2.478,0,0,0-1.838.8l-38.2,39.694L30.971,68.82Z" transform="translate(64.957 10.788)" fill="#5fbc38"/>
    <path id="Path_206" data-name="Path 206" d="M22.745,18.5a2.5,2.5,0,0,0-3.676,0L7.522,30.393a2.7,2.7,0,0,0,0,3.791l36.3,37.339c2.3,2.413,5.17,3.791,7.583,3.791,3.447,0,6.376-2.585,7.525-3.676l.057-.057,7.7-7.927Z" transform="translate(0 46.228)" fill="#5fbc38"/>
    <path id="Path_207" data-name="Path 207" d="M151.132,24.117,139.758,12.054a2.478,2.478,0,0,0-1.838-.8h0a2.478,2.478,0,0,0-1.838.8L56.924,94.027,28.145,64.386a2.5,2.5,0,0,0-3.676,0L12.922,76.276a2.7,2.7,0,0,0,0,3.791l36.3,37.339c2.3,2.413,5.17,3.791,7.583,3.791,3.447,0,6.376-2.585,7.525-3.676l.057-.057,86.74-89.67A2.673,2.673,0,0,0,151.132,24.117Z" transform="translate(38.717)" fill="#5fbc38"/>
  </g>
</svg>
